# This file uses centimeters as units for non-parametric coordinates.

mtllib SM_Bullet.mtl
g default
v -7.859989 31.641130 -4.619988
v -7.859989 35.571128 -7.475298
v -7.859989 40.428864 -7.475297
v -7.859989 44.358866 -4.619987
v -7.859989 45.859993 -0.000000
v -7.859989 44.358866 4.619987
v -7.859989 40.428864 7.475295
v -7.859989 35.571128 7.475295
v -7.859989 31.641134 4.619986
v -7.859989 30.140007 -0.000000
v -7.859989 38.000000 -0.000000
v 18.000001 38.000000 -0.000000
v 4.978281 31.641130 -4.619988
v 10.287747 32.912771 -3.696083
v 4.978281 35.571128 -7.475298
v 10.287747 36.056853 -5.980388
v 4.978281 40.428864 -7.475297
v 10.287747 39.943139 -5.980388
v 4.978281 44.358866 -4.619987
v 10.287747 43.087222 -3.696082
v 4.978281 45.859993 -0.000000
v 10.287747 44.288150 -0.000000
v 4.978281 44.358866 4.619987
v 10.287747 43.087222 3.696081
v 4.978281 40.428864 7.475295
v 10.287747 39.943139 5.980386
v 4.978281 35.571128 7.475295
v 10.287747 36.056853 5.980385
v 4.978281 31.641134 4.619986
v 10.287747 32.912774 3.696081
v 4.978281 30.140007 -0.000000
v 10.287747 31.711846 -0.000000
vt 0.145298 0.350153
vt 0.145298 0.248292
vt 0.233931 0.248292
vt 0.216206 0.350153
vt 0.074389 0.350153
vt 0.056664 0.248292
vt 0.145298 0.001992
vt 0.233931 0.001992
vt 0.288710 0.248292
vt 0.260031 0.350153
vt 0.145298 0.498111
vt 0.030565 0.350153
vt 0.001886 0.248292
vt 0.056664 0.001992
vt 0.288710 0.001992
vt 0.001886 0.001992
vt 0.569017 0.350153
vt 0.551292 0.248292
vt 0.639926 0.248292
vt 0.639926 0.350153
vt 0.525193 0.350153
vt 0.496514 0.248292
vt 0.551292 0.001992
vt 0.639926 0.001992
vt 0.728559 0.248292
vt 0.710834 0.350153
vt 0.639926 0.498111
vt 0.496514 0.001992
vt 0.728559 0.001992
vt 0.783338 0.248292
vt 0.754658 0.350153
vt 0.783338 0.001992
vt 0.511697 0.530688
vt 0.600331 0.652682
vt 0.456919 0.606084
vt 0.600331 0.501889
vt 0.456919 0.699279
vt 0.688964 0.530688
vt 0.511697 0.774675
vt 0.743743 0.606084
vt 0.600331 0.803474
vt 0.743743 0.699279
vt 0.688964 0.774675
vt 0.430292 0.149950
vt 0.439610 0.251811
vt 0.346415 0.251811
vt 0.355734 0.149950
vt 0.439610 0.498111
vt 0.346415 0.498111
vt 0.393013 0.001992
vt 0.490610 0.149950
vt 0.295415 0.149950
vt 0.809869 0.850050
vt 0.800550 0.748189
vt 0.893745 0.748189
vt 0.884427 0.850050
vt 0.800550 0.501889
vt 0.893745 0.501889
vt 0.847148 0.998008
vt 0.749550 0.850050
vt 0.944745 0.850050
vn -1.000000 0.000000 0.000000
vn -1.000000 0.000000 0.000000
vn -1.000000 0.000000 0.000000
vn -1.000000 0.000000 0.000000
vn -1.000000 0.000000 0.000000
vn -1.000000 0.000000 0.000000
vn -1.000000 0.000000 0.000000
vn -1.000000 0.000000 0.000000
vn -1.000000 0.000000 0.000000
vn -1.000000 0.000000 0.000000
vn -1.000000 0.000000 0.000000
vn 0.430541 -0.902571 0.000000
vn 0.076752 -0.997050 0.000000
vn 0.076752 -0.806630 -0.586051
vn 0.430542 -0.730195 -0.530518
vn 0.076753 -0.308105 -0.948251
vn 0.430542 -0.278910 -0.858396
vn 0.076753 0.308106 -0.948251
vn 0.430542 0.278910 -0.858396
vn 0.076753 0.806630 -0.586052
vn 0.430542 0.730195 -0.530518
vn 0.076753 0.997050 -0.000000
vn 0.430542 0.902571 0.000000
vn 0.076753 0.806630 0.586052
vn 0.430542 0.730195 0.530518
vn 0.076753 0.308105 0.948251
vn 0.430542 0.278910 0.858396
vn 0.076753 -0.308106 0.948251
vn 0.430542 -0.278910 0.858396
vn 0.076752 -0.806630 0.586052
vn 0.430542 -0.730195 0.530518
vn -0.000000 -1.000000 0.000000
vn -0.000000 -0.809017 -0.587785
vn -0.000000 -0.309017 -0.951057
vn 0.000000 0.309017 -0.951056
vn 0.000000 0.809017 -0.587786
vn 0.000000 1.000000 -0.000000
vn 0.000000 0.809017 0.587786
vn 0.000000 0.309017 0.951057
vn -0.000000 -0.309017 0.951056
vn -0.000000 -0.809017 0.587785
vn 1.000000 -0.000000 -0.000000
s 1
g pCylinder1
usemtl initialShadingGroup
f 1/33/1 11/34/2 2/35/3
f 2/35/3 11/34/2 3/37/4
f 3/37/4 11/34/2 4/39/5
f 4/39/5 11/34/2 5/41/6
f 5/41/6 11/34/2 6/43/7
f 6/43/7 11/34/2 7/42/8
f 7/42/8 11/34/2 8/40/9
f 8/40/9 11/34/2 9/38/10
f 9/38/10 11/34/2 10/36/11
f 10/36/11 11/34/2 1/33/1
s 2
f 32/1/12 31/2/13 13/3/14 14/4/15
f 14/4/15 13/3/14 15/9/16 16/10/17
f 16/44/17 15/45/16 17/46/18 18/47/19
f 18/21/19 17/22/18 19/18/20 20/17/21
f 20/17/21 19/18/20 21/19/22 22/20/23
f 22/20/23 21/19/22 23/25/24 24/26/25
f 24/26/25 23/25/24 25/30/26 26/31/27
f 26/53/27 25/54/26 27/55/28 28/56/29
f 28/12/29 27/13/28 29/6/30 30/5/31
f 30/5/31 29/6/30 31/2/13 32/1/12
f 10/7/32 1/8/33 13/3/14 31/2/13
f 15/9/16 13/3/14 1/8/33 2/15/34
f 17/46/18 15/45/16 2/48/34 3/49/35
f 19/18/20 17/22/18 3/28/35 4/23/36
f 21/19/22 19/18/20 4/23/36 5/24/37
f 23/25/24 21/19/22 5/24/37 6/29/38
f 25/30/26 23/25/24 6/29/38 7/32/39
f 27/55/28 25/54/26 7/57/39 8/58/40
f 29/6/30 27/13/28 8/16/40 9/14/41
f 31/2/13 29/6/30 9/14/41 10/7/32
f 32/1/12 14/4/15 12/11/42
f 12/50/42 14/51/15 16/44/17
f 12/50/42 16/44/17 18/47/19
f 12/50/42 18/47/19 20/52/21
f 12/27/42 20/17/21 22/20/23
f 12/27/42 22/20/23 24/26/25
f 12/59/42 24/60/25 26/53/27
f 12/59/42 26/53/27 28/56/29
f 12/59/42 28/56/29 30/61/31
f 12/11/42 30/5/31 32/1/12
g default
v -7.859989 31.641130 -4.619988
v -7.859989 35.571128 -7.475298
v -7.859989 40.428864 -7.475297
v -7.859989 44.358866 -4.619987
v -7.859989 45.859993 -0.000000
v -7.859989 44.358866 4.619987
v -7.859989 40.428864 7.475295
v -7.859989 35.571128 7.475295
v -7.859989 31.641134 4.619986
v -7.859989 30.140007 -0.000000
v -7.859989 38.000000 -0.000000
v 18.000001 38.000000 -0.000000
v 4.978281 31.641130 -4.619988
v 10.287747 32.912771 -3.696083
v 4.978281 35.571128 -7.475298
v 10.287747 36.056853 -5.980388
v 4.978281 40.428864 -7.475297
v 10.287747 39.943139 -5.980388
v 4.978281 44.358866 -4.619987
v 10.287747 43.087222 -3.696082
v 4.978281 45.859993 -0.000000
v 10.287747 44.288150 -0.000000
v 4.978281 44.358866 4.619987
v 10.287747 43.087222 3.696081
v 4.978281 40.428864 7.475295
v 10.287747 39.943139 5.980386
v 4.978281 35.571128 7.475295
v 10.287747 36.056853 5.980385
v 4.978281 31.641134 4.619986
v 10.287747 32.912774 3.696081
v 4.978281 30.140007 -0.000000
v 10.287747 31.711846 -0.000000
vt 0.145298 0.350153
vt 0.145298 0.248292
vt 0.233931 0.248292
vt 0.216206 0.350153
vt 0.074389 0.350153
vt 0.056664 0.248292
vt 0.145298 0.001992
vt 0.233931 0.001992
vt 0.288710 0.248292
vt 0.260031 0.350153
vt 0.145298 0.498111
vt 0.030565 0.350153
vt 0.001886 0.248292
vt 0.056664 0.001992
vt 0.288710 0.001992
vt 0.001886 0.001992
vt 0.569017 0.350153
vt 0.551292 0.248292
vt 0.639926 0.248292
vt 0.639926 0.350153
vt 0.525193 0.350153
vt 0.496514 0.248292
vt 0.551292 0.001992
vt 0.639926 0.001992
vt 0.728559 0.248292
vt 0.710834 0.350153
vt 0.639926 0.498111
vt 0.496514 0.001992
vt 0.728559 0.001992
vt 0.783338 0.248292
vt 0.754658 0.350153
vt 0.783338 0.001992
vt 0.511697 0.530688
vt 0.600331 0.652682
vt 0.456919 0.606084
vt 0.600331 0.501889
vt 0.456919 0.699279
vt 0.688964 0.530688
vt 0.511697 0.774675
vt 0.743743 0.606084
vt 0.600331 0.803474
vt 0.743743 0.699279
vt 0.688964 0.774675
vt 0.430292 0.149950
vt 0.439610 0.251811
vt 0.346415 0.251811
vt 0.355734 0.149950
vt 0.439610 0.498111
vt 0.346415 0.498111
vt 0.393013 0.001992
vt 0.490610 0.149950
vt 0.295415 0.149950
vt 0.809869 0.850050
vt 0.800550 0.748189
vt 0.893745 0.748189
vt 0.884427 0.850050
vt 0.800550 0.501889
vt 0.893745 0.501889
vt 0.847148 0.998008
vt 0.749550 0.850050
vt 0.944745 0.850050
vn -1.000000 0.000000 0.000000
vn -1.000000 0.000000 0.000000
vn -1.000000 0.000000 0.000000
vn -1.000000 0.000000 0.000000
vn -1.000000 0.000000 0.000000
vn -1.000000 0.000000 0.000000
vn -1.000000 0.000000 0.000000
vn -1.000000 0.000000 0.000000
vn -1.000000 0.000000 0.000000
vn -1.000000 0.000000 0.000000
vn -1.000000 0.000000 0.000000
vn 0.430541 -0.902571 0.000000
vn 0.076752 -0.997050 0.000000
vn 0.076752 -0.806630 -0.586051
vn 0.430542 -0.730195 -0.530518
vn 0.076753 -0.308105 -0.948251
vn 0.430542 -0.278910 -0.858396
vn 0.076753 0.308106 -0.948251
vn 0.430542 0.278910 -0.858396
vn 0.076753 0.806630 -0.586052
vn 0.430542 0.730195 -0.530518
vn 0.076753 0.997050 -0.000000
vn 0.430542 0.902571 0.000000
vn 0.076753 0.806630 0.586052
vn 0.430542 0.730195 0.530518
vn 0.076753 0.308105 0.948251
vn 0.430542 0.278910 0.858396
vn 0.076753 -0.308106 0.948251
vn 0.430542 -0.278910 0.858396
vn 0.076752 -0.806630 0.586052
vn 0.430542 -0.730195 0.530518
vn -0.000000 -1.000000 0.000000
vn -0.000000 -0.809017 -0.587785
vn -0.000000 -0.309017 -0.951057
vn 0.000000 0.309017 -0.951056
vn 0.000000 0.809017 -0.587786
vn 0.000000 1.000000 -0.000000
vn 0.000000 0.809017 0.587786
vn 0.000000 0.309017 0.951057
vn -0.000000 -0.309017 0.951056
vn -0.000000 -0.809017 0.587785
vn 1.000000 -0.000000 -0.000000
s 1
g pCylinder1
f 33/94/43 43/95/44 34/96/45
f 34/96/45 43/95/44 35/98/46
f 35/98/46 43/95/44 36/100/47
f 36/100/47 43/95/44 37/102/48
f 37/102/48 43/95/44 38/104/49
f 38/104/49 43/95/44 39/103/50
f 39/103/50 43/95/44 40/101/51
f 40/101/51 43/95/44 41/99/52
f 41/99/52 43/95/44 42/97/53
f 42/97/53 43/95/44 33/94/43
s 2
f 64/62/54 63/63/55 45/64/56 46/65/57
f 46/65/57 45/64/56 47/70/58 48/71/59
f 48/105/59 47/106/58 49/107/60 50/108/61
f 50/82/61 49/83/60 51/79/62 52/78/63
f 52/78/63 51/79/62 53/80/64 54/81/65
f 54/81/65 53/80/64 55/86/66 56/87/67
f 56/87/67 55/86/66 57/91/68 58/92/69
f 58/114/69 57/115/68 59/116/70 60/117/71
f 60/73/71 59/74/70 61/67/72 62/66/73
f 62/66/73 61/67/72 63/63/55 64/62/54
f 42/68/74 33/69/75 45/64/56 63/63/55
f 47/70/58 45/64/56 33/69/75 34/76/76
f 49/107/60 47/106/58 34/109/76 35/110/77
f 51/79/62 49/83/60 35/89/77 36/84/78
f 53/80/64 51/79/62 36/84/78 37/85/79
f 55/86/66 53/80/64 37/85/79 38/90/80
f 57/91/68 55/86/66 38/90/80 39/93/81
f 59/116/70 57/115/68 39/118/81 40/119/82
f 61/67/72 59/74/70 40/77/82 41/75/83
f 63/63/55 61/67/72 41/75/83 42/68/74
f 64/62/54 46/65/57 44/72/84
f 44/111/84 46/112/57 48/105/59
f 44/111/84 48/105/59 50/108/61
f 44/111/84 50/108/61 52/113/63
f 44/88/84 52/78/63 54/81/65
f 44/88/84 54/81/65 56/87/67
f 44/120/84 56/121/67 58/114/69
f 44/120/84 58/114/69 60/117/71
f 44/120/84 60/117/71 62/122/73
f 44/72/84 62/66/73 64/62/54
